<?xml version="1.0" standalone="no"?><!DOCTYPE svg PUBLIC "-//W3C//DTD SVG 1.1//EN" "http://www.w3.org/Graphics/SVG/1.1/DTD/svg11.dtd"><svg class="icon" width="200px" height="200.00px" viewBox="0 0 1024 1024" version="1.1" xmlns="http://www.w3.org/2000/svg"><path fill="#ffffff" d="M512 757.593488c-56.521295 0-102.33062 45.819558-102.33062 102.33062 0 56.521295 45.809325 102.33062 102.33062 102.33062 56.500828 0 102.33062-45.809325 102.33062-102.33062C614.33062 803.412023 568.500828 757.593488 512 757.593488zM512 921.322479c-33.916461 0-61.398372-27.492144-61.398372-61.398372 0-33.906228 27.481911-61.398372 61.398372-61.398372 33.898041 0 61.398372 27.492144 61.398372 61.398372C573.398372 893.829312 545.898041 921.322479 512 921.322479zM512 409.66938c-56.521295 0-102.33062 45.819558-102.33062 102.33062 0 56.521295 45.809325 102.33062 102.33062 102.33062 56.500828 0 102.33062-45.809325 102.33062-102.33062C614.33062 455.487915 568.500828 409.66938 512 409.66938zM512 573.398372c-33.916461 0-61.398372-27.481911-61.398372-61.398372 0-33.906228 27.481911-61.398372 61.398372-61.398372 33.898041 0 61.398372 27.492144 61.398372 61.398372C573.398372 545.915437 545.898041 573.398372 512 573.398372zM512 266.406512c56.500828 0 102.33062-45.809325 102.33062-102.33062 0-56.511062-45.829791-102.33062-102.33062-102.33062-56.521295 0-102.33062 45.819558-102.33062 102.33062C409.66938 220.597187 455.478705 266.406512 512 266.406512zM512 102.677521c33.898041 0 61.398372 27.492144 61.398372 61.398372 0 33.906228-27.500331 61.398372-61.398372 61.398372-33.916461 0-61.398372-27.492144-61.398372-61.398372C450.601628 130.169665 478.083539 102.677521 512 102.677521z" /></svg>